<svg width="163" height="163" viewBox="0 0 163 163" fill="none" xmlns="http://www.w3.org/2000/svg">
<path d="M162.162 81.5C162.162 36.489 125.861 0 81.082 0C36.301 0 0 36.489 0 81.5C0 126.51 36.301 163 81.081 163C125.861 163 162.162 126.51 162.162 81.5Z" fill="#339AF0"/>
<path d="M65.983 43.049C65.2563 44.0363 64.8369 45.2159 64.7771 46.4403C64.7174 47.6648 65.0199 48.8796 65.647 49.933C66.063 50.6294 66.6129 51.2364 67.265 51.719C76.709 58.755 82.131 69.513 82.131 81.239C82.131 92.965 76.709 103.723 67.265 110.759C66.6137 111.242 66.0645 111.849 65.649 112.545C64.8058 113.956 64.5562 115.643 64.955 117.238C65.152 118.028 65.501 118.771 65.983 119.424C66.464 120.077 67.0695 120.629 67.7646 121.047C68.4596 121.466 69.2305 121.742 70.0329 121.862C70.8353 121.981 71.6534 121.941 72.4401 121.743C73.2268 121.545 73.9666 121.193 74.617 120.708C77.5257 118.54 80.1903 116.062 82.564 113.318H100.057C103.463 113.318 106.231 110.546 106.231 107.124C106.231 103.702 103.469 100.93 100.057 100.93H90.402C93.1008 94.7172 94.4868 88.0137 94.473 81.24C94.4874 74.4657 93.1018 67.7615 90.403 61.548H100.063C103.469 61.548 106.236 58.777 106.236 55.354C106.236 51.932 103.474 49.161 100.063 49.161H82.574C80.1991 46.4145 77.5328 43.9343 74.622 41.764C73.9725 41.2797 73.2337 40.9285 72.448 40.7306C71.6624 40.5328 70.8454 40.4921 70.044 40.611C68.4227 40.8545 66.9644 41.7313 65.989 43.049H65.983V43.049Z" fill="white"/>
<path fill-rule="evenodd" clip-rule="evenodd" d="M56.2359 79.3911C56.2065 78.1585 56.4213 76.9323 56.8679 75.7831C57.3129 74.637 57.9815 73.591 58.8349 72.7061C59.6848 71.8249 60.7029 71.1234 61.8289 70.6431C62.9518 70.1646 64.1599 69.918 65.3804 69.918C66.601 69.918 67.809 70.1646 68.9319 70.6431C70.0583 71.1233 71.0768 71.8248 71.927 72.7061C72.7804 73.591 73.449 74.637 73.8939 75.7831C74.34 76.9324 74.5541 78.1586 74.524 79.3911C74.4685 81.7991 73.4808 84.0917 71.7689 85.7861C70.0684 87.4689 67.7733 88.4138 65.3809 88.4161C62.9879 88.4143 60.6919 87.4694 58.9909 85.7861C57.279 84.0917 56.2914 81.7991 56.2359 79.3911V79.3911Z" fill="white"/>
</svg>
